<svg width="35" height="35" viewBox="0 0 35 35" fill="none" xmlns="http://www.w3.org/2000/svg">
<path fill-rule="evenodd" clip-rule="evenodd" d="M10.97 11.2733C14.7428 11.3057 14.8808 11.3219 15.6841 11.727C16.1871 11.9863 16.7388 12.5859 17.0228 13.1936C17.2338 13.6392 17.2663 13.8093 17.2663 14.3684C17.2581 15.4379 16.8362 16.2481 15.9518 16.8558L15.5786 17.107L15.8707 17.2123C16.5766 17.4554 17.3555 18.1684 17.6557 18.849C17.9154 19.4404 17.9478 20.5343 17.7206 21.2067C17.4042 22.1466 16.8281 22.8677 16.0979 23.2404C15.3027 23.6456 15.0755 23.6699 11.1322 23.7023L7.41608 23.7428V11.2328L10.97 11.2733ZM9.93135 21.62H11.7976C12.8199 21.62 13.8341 21.5795 14.0532 21.539C14.7915 21.3769 15.2865 20.7854 15.2865 20.0643C15.2865 19.2946 14.9538 18.7842 14.2723 18.4844C13.9964 18.3709 13.6232 18.3385 11.9436 18.3142L9.93135 18.2818V21.62ZM9.93135 16.1995L13.7855 16.1509L14.1587 15.9321C14.613 15.6648 14.7997 15.3164 14.7997 14.733C14.7996 14.0929 14.4913 13.6392 13.9153 13.4447C13.7448 13.388 12.9578 13.3556 11.7894 13.3556H9.93135V16.1995Z" fill="white"/>
<path fill-rule="evenodd" clip-rule="evenodd" d="M22.1021 14.2468C22.3455 14.2063 22.8405 14.1983 23.1975 14.2226C24.4795 14.3117 25.2422 14.6277 26.0454 15.4217C26.8568 16.2239 27.2301 17.1961 27.3437 18.8409L27.4005 19.5944H21.0392L21.096 19.9752C21.2502 21.0285 21.9317 21.7253 22.9054 21.8388C23.5951 21.9198 24.3334 21.5552 24.5931 21.0042L24.731 20.7287H27.3193L27.2625 20.988C27.1814 21.4012 26.727 22.0818 26.2564 22.5194C25.2097 23.4835 23.6032 23.8481 21.8831 23.524C19.7329 23.1108 18.5077 21.466 18.5077 18.9867C18.5158 17.6255 18.7998 16.6452 19.4327 15.8025C20.0412 15.0004 21.0554 14.4089 22.1021 14.2468ZM23.595 16.1266C22.8405 15.8997 22.1508 16.078 21.6477 16.6209C21.3151 16.9936 21.1284 17.4392 21.1284 17.8848V18.136H24.8609V17.9496C24.8608 17.2042 24.2523 16.3292 23.595 16.1266Z" fill="white"/>
<path d="M25.4694 12.991H20.4388L20.3901 11.8161H25.5181L25.4694 12.991Z" fill="white"/>
<path fill-rule="evenodd" clip-rule="evenodd" d="M15.246 0.108293C16.2602 -0.0213417 18.3697 -0.0375978 19.4083 0.0758323C20.9256 0.237879 22.9135 0.748378 24.2523 1.32364C28.0496 2.93601 31.214 5.86903 33.0802 9.52317C35.92 15.0652 35.5873 21.8063 32.2282 26.9432C30.435 29.6899 28.0739 31.7803 25.1529 33.2145C20.2928 35.5965 14.6618 35.5965 9.78534 33.2063C4.62493 30.6784 1.14411 25.979 0.137991 20.2021C0.0325124 19.5863 4.46838e-07 18.9219 0 17.4878C0 15.4136 0.0811621 14.733 0.511196 13.0639C2.31247 6.18501 8.15446 1.04816 15.246 0.108293ZM19.0189 1.77732C15.4245 1.40462 11.7489 2.32833 8.69805 4.37822C5.01438 6.84134 2.58022 10.6575 1.84998 15.1057C1.64714 16.3211 1.64714 18.6545 1.84998 19.8699C3.01837 26.9918 8.56013 32.3069 15.6922 33.1658C21.5342 33.8707 27.4167 31.1159 30.6704 26.1573C31.928 24.2451 32.7069 22.2196 33.1045 19.878C33.2992 18.7275 33.2992 16.2887 33.1045 15.1057C31.9199 7.89464 26.2321 2.51465 19.0189 1.77732Z" fill="white"/>
</svg>
