<svg width="35" height="35" viewBox="0 0 35 35" fill="none" xmlns="http://www.w3.org/2000/svg">
<path fill-rule="evenodd" clip-rule="evenodd" d="M16.5224 13.2092C18.4793 12.7918 20.4841 13.7429 21.3667 15.5015C22.0236 16.8085 22.0167 18.1701 21.3667 19.4702C20.6346 20.914 19.1019 21.8652 17.4803 21.8652C15.8518 21.8652 14.2781 20.8935 13.5871 19.4566C12.9439 18.1291 12.9439 16.8427 13.5871 15.5152C14.1208 14.4067 15.3182 13.4692 16.5224 13.2092ZM18.404 15.5083C17.9593 15.2962 17.2271 15.2483 16.7961 15.4057C14.9282 16.0831 14.7776 18.5944 16.5566 19.4702C16.8371 19.6071 17.0014 19.6413 17.4803 19.6345C17.9729 19.6345 18.1167 19.6071 18.4109 19.4566C18.924 19.1897 19.143 18.9776 19.403 18.4986C19.6083 18.1085 19.6288 18.0128 19.6356 17.4859C19.6356 17.0069 19.6014 16.8427 19.4646 16.5621C19.2456 16.1242 18.8351 15.7136 18.404 15.5083Z" fill="white"/>
<path d="M21.9415 11.2659C22.3041 11.1564 22.8652 11.2248 23.1594 11.4233C23.5631 11.6901 23.741 12.0322 23.741 12.5591C23.741 13.0928 23.5631 13.4282 23.1389 13.7087C22.7557 13.9619 22.092 13.9756 21.702 13.7292C21.182 13.4076 20.9425 12.7713 21.0999 12.1623C21.1957 11.8133 21.6131 11.3617 21.9415 11.2659Z" fill="white"/>
<path fill-rule="evenodd" clip-rule="evenodd" d="M11.0554 7.73501C11.7191 7.59132 23.1868 7.59132 23.8779 7.73501C25.1163 7.99504 26.2658 8.88461 26.8406 10.0273C27.3401 11.0332 27.3332 10.8416 27.3332 17.4858C27.3332 24.1232 27.3469 23.918 26.8406 24.9375C26.2795 26.0803 25.1232 26.9766 23.8779 27.2367C23.1663 27.3872 11.7945 27.3872 11.0896 27.2367C9.84432 26.9698 8.67429 26.0666 8.11322 24.9444C7.62057 23.9317 7.62741 24.1164 7.62741 17.4858C7.62741 10.8553 7.62057 11.04 8.11322 10.0273C8.6606 8.91882 9.83746 8.00188 11.0554 7.73501ZM17.5829 9.8426C12.3007 9.82891 11.5959 9.84258 11.3222 9.93837C10.638 10.1779 10.1454 10.6842 9.92641 11.3685C9.82377 11.6696 9.81695 12.3333 9.83064 17.6227L9.85113 23.5416L10.0222 23.8838C10.2343 24.3217 10.6448 24.7323 11.0827 24.9444L11.4249 25.1155H23.5357L23.8779 24.9444C24.3158 24.7323 24.7263 24.3217 24.9384 23.8838L25.1095 23.5416V11.4301L24.9384 11.088C24.7263 10.65 24.3158 10.2395 23.8779 10.0273L23.5357 9.85628L17.5829 9.8426Z" fill="white"/>
<path fill-rule="evenodd" clip-rule="evenodd" d="M15.804 0.0438562C16.6456 -0.045096 19.0746 0.00964703 19.9094 0.132815C23.7342 0.70076 27.0664 2.35668 29.7827 5.05268C31.2196 6.47596 32.2597 7.90611 33.1423 9.69205C35.6192 14.6735 35.6192 20.2982 33.1423 25.2797C31.7739 28.0441 29.7417 30.3501 27.1279 32.095C26.1974 32.7177 24.3089 33.662 23.2963 34.0109C19.793 35.2152 16.0982 35.3248 12.6497 34.312C7.84639 32.9093 3.96681 29.659 1.77043 25.1839C0.901464 23.4048 0.381456 21.7009 0.0872381 19.6413C-0.0290786 18.8338 -0.0290801 16.1378 0.0872381 15.3304C0.490935 12.5112 1.41464 10.0342 2.88573 7.81029C5.7937 3.43782 10.5423 0.577585 15.804 0.0438562ZM19.8067 2.32931C18.9377 2.1993 16.7277 2.14458 15.8724 2.23353C8.94799 2.98623 3.39205 8.30982 2.31097 15.2346C2.14675 16.3226 2.14675 18.6491 2.31097 19.7371C3.37152 26.5251 8.58535 31.6639 15.4618 32.6903C16.3719 32.8203 18.7598 32.8067 19.7178 32.6561C24.74 31.8624 29.0028 28.7558 31.1991 24.2943C32.3281 21.9884 32.766 20.0861 32.766 17.4858C32.766 15.8641 32.6771 15.0772 32.3281 13.7018C30.8365 7.79661 25.8553 3.2736 19.8067 2.32931Z" fill="white"/>
</svg>
