<svg width="35" height="35" viewBox="0 0 35 35" fill="none" xmlns="http://www.w3.org/2000/svg">
<path d="M14.2961 23.8742H11.1475V15.1065H14.2961V23.8742Z" fill="white"/>
<path d="M19.0875 15.1065L19.0943 15.7709C19.0943 16.3189 19.108 16.4148 19.1764 16.3121C19.5734 15.6614 20.2305 15.2846 21.1751 15.1613C22.9137 14.9284 24.0705 15.7709 24.5291 17.6067C24.6318 18.0108 24.6591 18.5246 24.6797 20.9768L24.7139 23.8742H21.49L21.4695 21.0795C21.4489 18.0999 21.4558 18.1547 21.0861 17.7642C20.6002 17.2368 19.6282 17.5382 19.2654 18.3259C19.1285 18.6204 19.1217 18.7643 19.1012 21.2508L19.0806 23.8742H15.9388V15.1065H19.0875Z" fill="white"/>
<path d="M12.0715 11.298C12.6602 11.0172 13.2899 11.1063 13.7622 11.5309C14.8437 12.5104 14.1934 14.2845 12.756 14.2846C12.2427 14.2846 11.8799 14.1202 11.5445 13.7503C11.1338 13.2913 11.0379 12.6543 11.2912 12.0926C11.476 11.6816 11.6608 11.4898 12.0715 11.298Z" fill="white"/>
<path fill-rule="evenodd" clip-rule="evenodd" d="M15.8362 0.0439026C16.6712 -0.045144 19.1011 0.00965807 19.9431 0.132953C22.6331 0.530239 25.1383 1.49606 27.356 2.99616C28.6155 3.84552 30.2171 5.32504 31.1891 6.55114C33.2015 9.07185 34.4336 11.983 34.9127 15.3462C35.0291 16.1545 35.0291 18.8533 34.9127 19.6616C34.5157 22.4426 33.5506 25.0318 32.1063 27.1964C29.252 31.4569 24.8508 34.1968 19.7035 34.9092C18.8616 35.0256 16.1716 35.0325 15.357 34.916C13.2967 34.6215 11.5924 34.1009 9.81272 33.231C7.95777 32.32 6.52036 31.2856 5.0761 29.8198C3.86457 28.6005 2.93364 27.3539 2.13279 25.8949C-0.885775 20.4083 -0.687266 13.5379 2.64615 8.23622C5.56205 3.59209 10.3603 0.612436 15.8362 0.0439026ZM19.6624 1.71524C18.9505 1.61249 17.1093 1.53715 16.5549 1.5851C14.255 1.78374 12.3316 2.30433 10.4698 3.22904C5.64421 5.61961 2.42028 10.161 1.69473 15.586C1.58521 16.4217 1.58521 18.5862 1.69473 19.4219C2.42029 24.8469 5.63737 29.3746 10.4698 31.7789C11.9894 32.5323 13.5363 33.0186 15.357 33.2995C16.2879 33.4433 18.4919 33.4639 19.4297 33.3337C24.8645 32.6008 29.3752 29.3883 31.7778 24.5523C32.9003 22.2919 33.4137 20.0863 33.4137 17.5039C33.4137 16.0586 33.3315 15.2915 33.0441 13.9763C32.6676 12.2776 31.7641 10.1678 30.7647 8.6746C28.2184 4.87299 24.2005 2.35227 19.6624 1.71524Z" fill="white"/>
</svg>
