<svg width="31" height="35" viewBox="0 0 31 35" fill="none" xmlns="http://www.w3.org/2000/svg">
<path d="M15.0674 12.253L15.047 24.5128L14.8912 24.9573C14.6541 25.6068 14.3222 26.1197 13.8345 26.5846C12.5745 27.7744 10.6439 27.9521 9.201 27.0154C8.78778 26.7487 8.19167 26.1197 7.9478 25.7026C6.9791 24.0273 7.44652 21.812 9.00456 20.6906C9.24842 20.5197 9.64809 20.294 9.90551 20.1915C10.3323 20.0205 10.4542 20.0068 11.2536 20.0068C12.1071 20.0068 12.1545 20.0137 12.9471 20.294C13.3874 20.4513 13.76 20.5812 13.7735 20.5812C13.7871 20.5812 13.7938 18.8308 13.7938 16.6906V12.8L12.8793 12.6838C11.1587 12.4581 9.33649 12.6017 7.74458 13.1009C6.95201 13.347 5.40074 14.1402 4.64882 14.6803C3.82916 15.2752 2.64369 16.4718 2.05435 17.2991C1.53274 18.0376 0.81469 19.4667 0.557275 20.2735C-0.174326 22.5641 -0.187874 24.9504 0.530179 27.2137C1.66822 30.8034 4.68947 33.6684 8.36779 34.6393C10.5829 35.2205 13.0351 35.0974 15.1961 34.2838C18.6034 33.012 21.2318 30.065 22.1327 26.5162C22.4443 25.2786 22.4647 24.841 22.4647 19.1248V13.7436L23.1285 14.0786C25.3098 15.1795 27.3962 15.6581 29.9907 15.6581H31V12.0068V8.35556L30.58 8.31453C30.3429 8.29402 29.8349 8.25983 29.4487 8.23932C28.5817 8.19145 28.1346 8.1094 27.4436 7.88376C24.9304 7.07009 23.0608 4.92308 22.5595 2.27009C22.5053 1.99658 22.4647 1.41539 22.4647 0.991455C22.4647 0.567524 22.4443 0.17094 22.424 0.109402C22.3834 0.0136757 21.9972 0 18.7321 0H15.0809L15.0674 12.253ZM20.5002 2.24957C20.5002 2.57778 20.8795 3.96581 21.1302 4.56068C22.1598 7.00171 24.1446 8.88889 26.6172 9.77094C27.2472 9.98974 28.4055 10.2564 28.7578 10.2564H28.9678V11.9316V13.6068L28.6494 13.5658C26.8068 13.3607 25.3775 12.9436 23.9482 12.1983C23.1895 11.8017 22.4647 11.3162 21.3673 10.4547C20.8863 10.0855 20.4866 9.77778 20.4663 9.77778C20.446 9.77778 20.4324 13.0735 20.4324 17.1009C20.4324 25.2308 20.4324 25.2376 19.9921 26.5709C19.5857 27.7949 18.9828 28.8752 18.1834 29.7778C16.4493 31.7402 14.2274 32.8137 11.6261 32.9299C9.621 33.0256 7.73103 32.4855 6.01041 31.3367C4.88591 30.5778 3.58529 29.094 2.9553 27.8359C2.25757 26.4273 1.90532 24.4991 2.0679 22.9402C2.31176 20.6701 3.19917 18.8239 4.8114 17.2444C6.53202 15.5556 8.74714 14.6325 11.0707 14.6325H11.7616V16.2667V17.894L10.9352 17.9282C10.251 17.9624 9.9868 18.0034 9.45842 18.1812C7.54813 18.8103 6.08493 20.3829 5.55655 22.3932C5.46171 22.7556 5.43461 23.1043 5.43461 23.8291C5.44139 24.6701 5.46171 24.8615 5.62429 25.4017C6.35589 27.8427 8.42198 29.5043 10.9148 29.6547C12.5474 29.7504 14.1461 29.1487 15.318 28C16.0902 27.2479 16.578 26.3932 16.937 25.1966C17.0793 24.7179 17.0793 24.6632 17.0996 13.3812L17.1131 2.05128H18.8067H20.5002V2.24957Z" fill="white"/>
</svg>
